<svg xmlns="http://www.w3.org/2000/svg" viewBox="0 0 24 24" width="48" height="48">
  <g>
    <!-- Clipboard Icon -->
    <path d="M16 2C15.4477 2 15 2.4477 15 3V5H9V3C9 2.4477 8.5523 2 8 2C7.4477 2 7 2.4477 7 3V5C6.4477 5 6 5.4477 6 6V18C6 18.5523 6.4477 19 7 19H17C17.5523 19 18 18.5523 18 18V6C18 5.4477 17.5523 5 17 5V3C17 2.4477 16.5523 2 16 2ZM9 3H15V5H9V3ZM7 6H17V18H7V6Z"/>
    <!-- Copy Arrow -->
    <path d="M10 13C10.5523 13 11 13.4477 11 14C11 14.5523 10.5523 15 10 15H7V17H10C10.5523 17 11 17.4477 11 18C11 18.5523 10.5523 19 10 19H5C4.4477 19 4 18.5523 4 18V13C4 12.4477 4.4477 12 5 12H10Z"/>
  </g>
</svg>